<svg width="512" height="512" viewBox="0 0 680 680" xmlns="http://www.w3.org/2000/svg">
  <defs>
    <linearGradient id="bg" x1="0" y1="0" x2="1" y2="1">
      <stop offset="0%" stop-color="#1a1a2e"/>
      <stop offset="100%" stop-color="#16213e"/>
    </linearGradient>
    <linearGradient id="box1" x1="0" y1="0" x2="0" y2="1">
      <stop offset="0%" stop-color="#0f3460"/>
      <stop offset="100%" stop-color="#0a2647"/>
    </linearGradient>
  </defs>
  <rect width="680" height="680" rx="130" fill="url(#bg)"/>
  <circle cx="580" cy="120" r="180" fill="#0f3460" opacity="0.4"/>
  <circle cx="100" cy="580" r="140" fill="#e94560" opacity="0.1"/>
  <rect x="330" y="340" width="220" height="200" rx="18" fill="url(#box1)" stroke="#e94560" stroke-width="3"/>
  <rect x="330" y="340" width="220" height="50" rx="18" fill="#e94560"/>
  <rect x="330" y="370" width="220" height="20" fill="#e94560"/>
  <rect x="130" y="370" width="180" height="170" rx="18" fill="url(#box1)" stroke="#f5a623" stroke-width="3"/>
  <rect x="130" y="370" width="180" height="46" rx="18" fill="#f5a623"/>
  <rect x="130" y="396" width="180" height="20" fill="#f5a623"/>
  <rect x="160" y="150" width="360" height="290" rx="20" fill="url(#box1)" stroke="#00d4ff" stroke-width="3"/>
  <rect x="160" y="150" width="360" height="70" rx="20" fill="#00d4ff" opacity="0.9"/>
  <rect x="160" y="198" width="360" height="22" fill="#00d4ff" opacity="0.9"/>
  <rect x="316" y="150" width="8" height="70" fill="#1a1a2e" opacity="0.3"/>
  <polyline points="230,330 300,400 450,250" fill="none" stroke="#00d4ff" stroke-width="26" stroke-linecap="round" stroke-linejoin="round"/>
  <circle cx="530" cy="200" r="10" fill="#e94560" opacity="0.8"/>
  <circle cx="560" cy="240" r="6" fill="#f5a623" opacity="0.6"/>
  <circle cx="150" cy="200" r="8" fill="#00d4ff" opacity="0.5"/>
  <rect x="200" y="620" width="280" height="8" rx="4" fill="#e94560" opacity="0.7"/>
</svg>